<mxfile host="app.diagrams.net" modified="2024-03-23T14:05:40.378Z" agent="Mozilla/5.0 (X11; Linux x86_64; rv:122.0) Gecko/20100101 Firefox/122.0" version="23.0.2" etag="a1mTgD5pRv3LU7G_hWkO" type="github">
  <diagram name="Page-1" id="Dv9fxQ2mZNHSmnLRjg-r">
    <mxGraphModel>
      <root>
        <mxCell id="0" />
        <mxCell id="1" parent="0" />
      </root>
    </mxGraphModel>
  </diagram>
</mxfile>
